<svg fill="none" height="28" viewBox="0 0 123 28" width="123" xmlns="http://www.w3.org/2000/svg"><g fill="#fff"><path d="m118.267 13.28c.256.032.48.192.672.48.16.224.192.288.192.64 0 .32 0 .352.064.224.096-.16.256-.224.416-.096.192.096.192.288.064.96-.096.512-.096 1.184.032 1.28.16.16.864-.384 1.888-1.472.288-.352.576-.608.608-.64.224-.064-.416.864-1.152 1.664-.672.768-.992.992-1.312 1.024-.512.064-.8-.352-.864-1.216l-.032-.512-.576.672c-.672.768-1.088 1.088-1.472 1.12-.192.032-.32 0-.448-.096-.448-.224-.576-.96-.32-1.728.32-.864 1.088-1.888 1.696-2.176.192-.064.384-.128.544-.128zm.256.576c-.064-.064-.128-.128-.192-.128-.128 0-.256.064-.416.224-.768.704-1.44 2.336-1.152 2.816.032.096.352 0 .672-.192.16-.096.48-.352.736-.576l.448-.416-.192-.032c-.288-.032-.288-.256.032-.864.288-.512.288-.608.064-.832z"/><path d="m113.215 13.12c.416 0 .672.256.672.64 0 .416-.64 1.344-1.504 2.24-.256.256-.448.512-.416.512 0 0 .288.032.608.096.64.064.992.16 1.28.32l.192.096.704-.64c1.024-.96 1.92-1.632 2.144-1.6.096.032.064.032-.064.128-.224.128-1.056.832-1.856 1.6l-.704.704.192.224c.32.384.448.736.416 1.44 0 1.792-.928 3.904-2.24 5.216-1.056 1.024-1.984 1.44-2.56 1.12-.128-.032-.288-.192-.352-.32-.16-.224-.192-.256-.192-.8 0-.448.032-.64.128-.96.48-1.408 1.824-3.424 3.392-5.088.352-.384.64-.736.64-.768s-.16-.096-.32-.16c-.384-.128-1.088-.128-1.6 0-.48.096-.672.096-.768 0-.256-.32-.16-.448.832-1.312.896-.768 1.536-1.472 1.696-1.888.128-.352.064-.448-.352-.448-.576.032-1.28.416-1.984 1.088-.416.384-.433.2991-.929.7366-.169.319.193-.1681.257-.3281.192-.48 1.92-1.8485 2.688-1.8485zm.8 4.384c-.192 0-1.984 2.144-2.656 3.136-1.12 1.664-1.664 3.232-1.344 3.872.192.352.384.384.8.192.832-.448 1.824-1.44 2.432-2.432.704-1.152 1.312-3.136 1.216-3.904-.032-.288-.352-.864-.448-.864z"/><path d="m107.496 13.12c.416 0 .672.256.672.64 0 .416-.64 1.344-1.504 2.24-.256.256-.448.512-.416.512 0 0 .288.032.608.096.64.064.992.16 1.28.32l.192.096.704-.64c1.024-.96 1.986-2.1467 2.21-2.1147.096.032.121.1211-.043.2907-.184.1897-1.143 1.184-1.943 1.952l-.704.704.192.224c.32.384.448.736.416 1.44 0 1.792-.928 3.904-2.24 5.216-1.056 1.024-1.984 1.44-2.56 1.12-.128-.032-.288-.192-.352-.32-.16-.224-.192-.256-.192-.8 0-.448.032-.64.128-.96.48-1.408 1.824-3.424 3.392-5.088.352-.384.64-.736.64-.768s-.16-.096-.32-.16c-.384-.128-1.088-.128-1.6 0-.48.096-.672.096-.768 0-.256-.32-.16-.448.832-1.312.896-.768 1.536-1.472 1.696-1.888.128-.352.064-.448-.352-.448-.576.032-1.28.416-1.984 1.088-.416.384-1.32.872-.98.596-.064.16-.16-.096 0 0 .192-.48 2.228-2.036 2.996-2.036zm.8 4.384c-.192 0-1.984 2.144-2.656 3.136-1.12 1.664-1.664 3.232-1.344 3.872.192.352.384.384.8.192.832-.448 1.824-1.44 2.432-2.432.704-1.152 1.312-3.136 1.216-3.904-.032-.288-.352-.864-.448-.864z"/><path d="m101.32 13.184c.256-.032.448.064.544.288.288.608-.864 2.176-1.568 2.176-.192 0-.192 0-.192.288 0 .384.16.608.448.768.352.192.704.192 1.184.064.64-.16 1.12-.448 2.272-1.344 1.984-1.7993 2.378-1.7274 1.578-.9594-.576.576-2.282 1.9834-2.73 2.2714-.864.576-1.728.832-2.304.672-1.1837-.32-1.5357-1.504-.8637-2.848.3837-.8 1.1197-1.344 1.6317-1.376zm.16.608c-.032 0-.064 0-.096 0-.32.096-.896.704-1.088 1.184l-.064.192.128-.032c.096-.032.288-.096.416-.192.32-.192.64-.608.704-.896.064-.224.064-.256 0-.256z"/><path d="m92.7858 17.312c-.096-.064-.128-.16-.192-.704-.064-.768 0-2.272.096-2.432s.32-.16.48 0c.128.128.192.48.16 1.248-.032.32-.032.608 0 .608 0 0 .16-.192.32-.416.576-.864 1.12-1.536 1.6-2.016.448-.448.512-.48.704-.48.448 0 .672.384.608 1.088-.192 1.92-.16 2.24.064 2.496.16.16.384.128.928-.128.352-.192 1.568-1.088 2.272-1.664.2882-.256.3842-.32.2882-.128-.064.16-.3522.416-1.2162 1.152-1.152.992-1.6 1.28-2.144 1.28-.48 0-.8-.384-.96-1.088-.064-.352-.032-1.024.096-1.92.096-.768.064-.8-.448-.416-.768.608-2.08 2.496-2.208 3.232-.032.224-.16.416-.256.416-.064 0-.128-.064-.192-.128z"/><path d="m88.689 17.344c-.096-.128-.128-1.024-.032-2.176.064-1.024.096-1.216.352-1.216s.352.192.352.768v.48l.096-.192c.704-1.472.832-1.696 1.152-1.664.224.032.224 0 .64.672.32.544.608.64 1.28.448.16-.032.352-.096.448-.128.256-.032.128.16-.256.32-.416.192-.896.32-1.184.256-.256-.032-.704-.448-.896-.864l-.16-.288-.16.256c-.384.544-.896 1.92-1.056 2.848-.032.192-.128.416-.16.48-.096.096-.32.096-.416 0z"/><path d="m85.4423 13.216c.48 0 .896.256 1.152.768.128.288.1599 1.024.0639 1.408l-.0639.192.32-.032c.448-.096 1.1839-.32 1.7599-.608.256-.128.4481-.224.4801-.192 0 0-.032.064-.096.16-.256.288-1.5681.864-2.4001.992-.16.032-.192.064-.384.448-.224.48-.5759.928-.8319 1.056-.288.16-.5441.16-.8641 0-.512-.256-.768-.8-.832-1.664-.032-.64.096-1.184.384-1.76.192-.384.1921-.416.5761-.576.256-.128.512-.192.736-.192zm-.0321.256c-.256 0-.448.096-.416.256.032.064-.032.256-.128.448s-.1919.48-.2559.608c-.032.256-.0321.288.0639.384.224.256.704.416 1.28.416l.384.032.0641-.256c.256-.896-.032-1.664-.736-1.856-.096-.032-.1921-.032-.2561-.032zm-.8959 2.08v.352c0 .416.128.768.32.992.16.16.352.192.608.032.192-.128.448-.448.64-.768l.096-.224h-.3521c-.416 0-.7679-.064-1.0879-.256z"/><path d="m89.0872 0h.9281c1.792.0640001 2.4.160001 2.624.512.192.288-.096.608-.896.928-.544.192-.864.256-.992.16-.064-.064-.064-.096.064-.224.096-.096.384-.256.64-.383999.416-.192001.48-.256001.416-.288001-.16-.064-2.1441-.064-3.5201 0-3.456.16-9.6.64-12.832.992-2.592.256-5.792.704-8.192 1.152-4.224.736-6.08 1.28-6.08 1.76 0 .384.5441.8 2.4321 1.856 4.128 2.336 5.504 3.264 6.944 4.64 1.088 1.088 1.8559 2.08 2.5919 3.424l.3521.608.352-.032c.192 0 .544-.032.8-.064.448-.032.5119-.032.5119-.16 0-.064-.032-1.76-.032-3.808 0-4.384.0001-8.576.0641-8.704.032-.128.1919-.192.3839-.128.352.064.384.544.416 5.28.032 2.016.0641 3.84.0641 4.064 0 .192-.0001 1.056.0319 1.856v1.504l2.1121-.032c2.784-.032 4.16.064 5.504.384.288.064.4799.16.4799.16-.032.032-.3519.032-.7039 0-1.088-.096-7.232.064-7.36.192-.032 0-.0001 1.888.032 4.192.064 5.152.032 6.784-.1921 7.072-.0959.128-.256.16-.416.096-.064-.032-.1279-.096-.1599-.16-.032-.192-.1921-1.568-.2561-2.656-.256-3.168-.4159-4.384-.8639-6.144-.192-.768-.3841-1.344-.6081-1.856l-.1279-.352-.416.032c-.256.032-.8001.096-1.2481.192-1.248.192-1.2799.192-1.4079.064-.256-.256-.064-.576.448-.704.192-.032.736-.096 1.216-.16 1.248-.128 1.152-.064.864-.576-.608-1.088-1.472-2.24-2.432-3.2-1.536-1.536-3.3601-2.72-6.8801-4.544-1.984-1.056-2.9439-1.76-3.0399-2.208-.16-.864.6399-1.216 4.4159-1.984 4.096-.832 9.1841-1.632 12.9601-2.016 4.192-.415999 8.5119-.7039995 11.0079-.736zm-14.08 15.712c-.384 0-1.0559.064-1.1199.096 0 .032.032.192.096.352.544 1.376 1.12 3.648 1.28 4.96 0 .16.0319.32.0319.32.032 0 .032-1.28 0-2.848-.032-1.536-.064-2.848-.096-2.88 0 0-.096 0-.192 0z"/><path d="m52.4542 13.28c.256.032.48.192.672.48.16.224.192.288.192.64 0 .32 0 .352.064.224.096-.16.256-.224.416-.096.192.096.192.288.064.96-.096.512-.096 1.184.032 1.28.16.16.864-.384 1.888-1.472.288-.352.576-.608.608-.64.224-.064-.416.864-1.152 1.664-.672.768-.992.992-1.312 1.024-.512.064-.8-.352-.864-1.216l-.032-.512-.576.672c-.672.768-1.088 1.088-1.472 1.12-.192.032-.32 0-.448-.096-.448-.224-.576-.96-.32-1.728.32-.864 1.088-1.888 1.696-2.176.192-.064.384-.128.544-.128zm.256.576c-.064-.064-.128-.128-.192-.128-.128 0-.256.064-.416.224-.768.704-1.44 2.336-1.152 2.816.032.096.352 0 .672-.192.16-.096.48-.352.736-.576l.448-.416-.192-.032c-.288-.032-.288-.256.032-.864.288-.512.288-.608.064-.832z"/><path d="m46.2992 17.184c-.416-.096-.8-.384-.96-.8-.32-.736 0-1.856.672-2.624.384-.384.704-.576 1.056-.64.512-.032.8.256.8.864 0 .448-.096.64-.288.672-.32.032-.416-.224-.224-.608.128-.256.16-.384.032-.48-.288-.256-1.024.576-1.312 1.536-.16.448-.16 1.056 0 1.248.32.48 1.12.48 2.016 0 .48-.224 1.728-.992 2.24-1.376.256-.16.48-.288.512-.288.032.032.064.064.032.096-.064.16-2.176 1.664-3.008 2.144-.544.288-1.088.384-1.568.256z"/><path d="m42.099 11.616c.096-.064.16-.064.224-.064.128 0 .224.064.256.224.096.288-.096.736-.32.736-.064 0-.128-.032-.16-.096-.224-.192-.192-.64 0-.8zm.256 1.76h.096c.224.096.288.32.192 1.152-.096 1.44.032 2.368.352 2.496.288.096.896-.384 2.048-1.6.448-.48.864-.864.864-.832.064.032-.224.384-.96 1.28-.832.992-1.312 1.472-1.6 1.568-.192.096-.512.128-.672.064s-.416-.32-.512-.544c-.192-.352-.256-.736-.32-1.344-.032-.608.096-1.952.224-2.08.096-.128.192-.16.288-.16z"/><path d="m37.9702 17.344c-.096-.128-.1279-1.024-.0319-2.176.064-1.024.0959-1.216.3519-1.216s.3521.192.3521.768v.48l.096-.192c.704-1.472.832-1.696 1.152-1.664.224.032.224 0 .64.672.32.544.6079.64 1.2799.448.16-.032.3521-.096.4481-.128.256-.032.128.16-.256.32-.416.192-.8961.32-1.1841.256-.256-.032-.704-.448-.896-.864l-.16-.288-.16.256c-.384.544-.896 1.92-1.056 2.848-.032.192-.128.416-.16.48-.096.096-.32.096-.416 0z"/><path d="m34.664 13.184c.256-.032.448.064.544.288.288.608-.864 2.176-1.568 2.176-.192 0-.192 0-.192.288 0 .384.16.608.448.768.352.192.704.192 1.184.064.64-.16 1.12-.448 2.272-1.344 1.12-.832 1.344-.896.544-.128-.576.576-1.248 1.152-1.696 1.44-.864.576-1.728.832-2.304.672-1.184-.32-1.536-1.504-.864-2.848.384-.8 1.12-1.344 1.632-1.376zm.16.608c-.032 0-.064 0-.096 0-.32.096-.896.704-1.088 1.184l-.064.192.128-.032c.096-.032.288-.096.416-.192.32-.192.64-.608.704-.896.064-.224.064-.256 0-.256z"/><path d="m31.8453 4.768c.064-.096.096-.128.256-.128s.192.032.288.16c.064.16.064.32-.032 1.504-.032.704-.192 2.304-.32 3.52-.32 3.52-.352 3.744-.352 5.408 0 1.184.032 1.856.096 2.528.192 1.664.448 2.784.704 3.008.128.096.128.096.384-.032.288-.128.352-.096.192.064-.224.256-.544.32-.8.192-.672-.448-1.12-2.752-1.248-6.528-.032-1.248-.096-1.408-.192-.544-.032.48-.192.832-.384.96-.032.064-.192.288-.32.544-.48.96-1.12 1.76-1.6 1.984-.48.256-.96.096-1.152-.352-.256-.704.352-2.304 1.216-3.2.544-.544 1.216-.768 1.728-.608.16.032.288.064.288.064s.128-.384.256-.832c.224-.736.288-.992.416-2.24.096-.768.192-1.888.256-2.496.16-1.888.256-2.816.32-2.976zm-1.856 8.96c-.032 0-.064 0-.096 0-.48.064-.896.512-1.312 1.344-.288.544-.448 1.088-.512 1.44 0 .288 0 .32.128.32.064 0 .192-.064.256-.096.672-.448 1.472-1.6 1.664-2.368.096-.512.096-.64-.128-.64z"/><path d="m24.539 13.184c.256-.032.448.064.544.288.288.608-.864 2.176-1.568 2.176-.192 0-.192 0-.192.288 0 .384.16.608.448.768.352.192.704.192 1.184.064.64-.16 1.12-.448 2.272-1.344 1.12-.832 1.344-.896.544-.128-.576.576-1.248 1.152-1.696 1.44-.864.576-1.728.832-2.304.672-1.184-.32-1.536-1.504-.864-2.848.384-.8 1.12-1.344 1.632-1.376zm.16.608c-.032 0-.064 0-.096 0-.32.096-.896.704-1.088 1.184l-.064.192.128-.032c.096-.032.288-.096.416-.192.32-.192.64-.608.704-.896.064-.224.064-.256 0-.256z"/><path d="m28.403 0h.928c1.792.0640001 2.4.160001 2.624.512.192.288-.096.608-.896.928-.544.192-.864.256-.992.16-.064-.064-.064-.096.064-.224.096-.096.384-.256.64-.383999.416-.192001.48-.256001.416-.288001-.16-.064-2.144-.064-3.52 0-3.456.16-9.6.64-12.832.992-2.592.256-5.79204.704-8.19204 1.152-4.224.736-6.079996 1.28-6.079996 1.76 0 .384.543996.8 2.431996 1.856 4.128 2.336 5.504 3.264 6.944 4.64 1.08804 1.088 1.85604 2.08 2.59204 3.424l.352.608.352-.032c.192 0 .544-.032.8-.064.448-.032.512-.032.512-.16 0-.064-.032-1.76-.032-3.808 0-4.384 0-8.576.064-8.704.032-.128.192-.192.384-.128.352.064.384.544.416 5.28.032 2.016.064 3.84.064 4.064 0 .192 0 1.056.032 1.856v1.504l2.112-.032c2.784-.032 4.16.064 5.504.384.288.064.48.16.48.16-.032.032-.352.032-.704 0-1.088-.096-7.232.064-7.36.192-.032 0 0 1.888.032 4.192.064 5.152.032 6.784-.192 7.072-.096.128-.256.16-.416.096-.064-.032-.128-.096-.16-.16-.032-.192-.192-1.568-.256-2.656-.256-3.168-.416-4.384-.864-6.144-.192-.768-.384-1.344-.608-1.856l-.128-.352-.416.032c-.256.032-.8.096-1.248.192-1.248.192-1.28004.192-1.40804.064-.256-.256-.064-.576.44804-.704.192-.032.736-.096 1.216-.16 1.248-.128 1.152-.064.864-.576-.608-1.088-1.472-2.24-2.43204-3.2-1.536-1.536-3.36-2.72-6.88-4.544-1.984-1.056-2.943996-1.76-3.0399959-2.208-.1600001-.864.6399999-1.216 4.4159959-1.984 4.096-.832 9.18404-1.632 12.96004-2.016 4.192-.415999 8.512-.7039995 11.008-.736zm-14.08 15.712c-.384 0-1.056.064-1.12.096 0 .032.032.192.096.352.544 1.376 1.12 3.648 1.28 4.96 0 .16.032.32.032.32.032 0 .032-1.28 0-2.848-.032-1.536-.064-2.848-.096-2.88 0 0-.096 0-.192 0z"/></g></svg>